# MagicaVoxel @ Ephtracy

# group
o 

# material
mtllib Character - Standing.mtl
usemtl palette

# normals
vn -1 0 0
vn 1 0 0
vn 0 0 1
vn 0 0 -1
vn 0 -1 0
vn 0 1 0

# texcoords
vt 0.626953 0.5
vt 0.658203 0.5
vt 0.662109 0.5
vt 0.814453 0.5

# verts
v -0.3 0.5 0.1
v -0.3 0.5 0
v -0.3 0.6 0.1
v -0.3 0.6 0
v -0.3 0.7 0.1
v -0.3 0.7 0
v -0.3 0.9 0.2
v -0.3 0.9 0.1
v -0.3 0.9 0
v -0.3 0.9 -0.1
v -0.3 1.1 0.2
v -0.3 1.1 0.1
v -0.3 1.2 0.1
v -0.3 1.2 -0.1
v -0.2 0 0.1
v -0.2 0 0
v -0.2 0.1 0.1
v -0.2 0.1 0
v -0.2 0.2 0.1
v -0.2 0.2 0
v -0.2 0.4 0.2
v -0.2 0.4 0.1
v -0.2 0.4 0
v -0.2 0.4 -0.1
v -0.2 0.5 0.2
v -0.2 0.5 0.1
v -0.2 0.5 0
v -0.2 0.5 -0.1
v -0.2 0.6 0.1
v -0.2 0.6 0
v -0.2 0.7 0.1
v -0.2 0.7 0
v -0.2 0.9 0.2
v -0.2 0.9 0.1
v -0.2 0.9 0
v -0.2 0.9 -0.1
v -0.2 1.1 0.2
v -0.2 1.1 0.1
v -0.2 1.2 0.2
v -0.2 1.2 0.1
v -0.2 1.2 -0.1
v -0.2 1.3 0.1
v -0.2 1.3 -0.1
v -0.1 1.2 0.2
v -0.1 1.2 0.1
v -0.1 1.3 0.2
v -0.1 1.3 0.1
v 0.1 0 0.1
v 0.1 0 0
v 0.1 0.1 0.1
v 0.1 0.1 0
v 0.1 0.2 0.1
v 0.1 0.2 0
v 0.1 0.4 0.1
v 0.1 0.4 0
v 0.1 1.2 0.2
v 0.1 1.2 0.1
v 0.1 1.3 0.2
v 0.1 1.3 0.1
v -0.1 0 0.1
v -0.1 0 0
v -0.1 0.1 0.1
v -0.1 0.1 0
v -0.1 0.2 0.1
v -0.1 0.2 0
v -0.1 0.4 0.1
v -0.1 0.4 0
v 0 1.2 0.2
v 0 1.2 0.1
v 0 1.3 0.2
v 0 1.3 0.1
v 0.1 1.2 0.1
v 0.1 1.2 0
v 0.1 1.3 0.1
v 0.1 1.3 0
v 0.2 0 0.1
v 0.2 0 0
v 0.2 0.1 0.1
v 0.2 0.1 0
v 0.2 0.2 0.1
v 0.2 0.2 0
v 0.2 0.4 0.2
v 0.2 0.4 0.1
v 0.2 0.4 0
v 0.2 0.4 -0.1
v 0.2 0.5 0.2
v 0.2 0.5 0.1
v 0.2 0.5 0
v 0.2 0.5 -0.1
v 0.2 0.6 0.1
v 0.2 0.6 0
v 0.2 0.7 0.1
v 0.2 0.7 0
v 0.2 0.9 0.2
v 0.2 0.9 0.1
v 0.2 0.9 0
v 0.2 0.9 -0.1
v 0.2 1 0.2
v 0.2 1 0.1
v 0.2 1.2 0.2
v 0.2 1.2 0.1
v 0.2 1.2 0
v 0.2 1.2 -0.1
v 0.2 1.3 0.2
v 0.2 1.3 0.1
v 0.2 1.3 0
v 0.2 1.3 -0.1
v 0.3 0.5 0.1
v 0.3 0.5 0
v 0.3 0.6 0.1
v 0.3 0.6 0
v 0.3 0.7 0.1
v 0.3 0.7 0
v 0.3 0.9 0.1
v 0.3 0.9 0
v 0.3 0.9 -0.1
v 0.3 1 0.2
v 0.3 1 0.1
v 0.3 1.2 0.2
v 0.3 1.2 -0.1
v -0.3 0.9 0.2
v -0.3 1.1 0.2
v -0.2 0.4 0.2
v -0.2 0.5 0.2
v -0.2 0.9 0.2
v -0.2 1 0.2
v -0.2 1.1 0.2
v -0.2 1.2 0.2
v -0.1 0.8 0.2
v -0.1 0.9 0.2
v -0.1 1 0.2
v -0.1 1.1 0.2
v -0.1 1.2 0.2
v -0.1 1.3 0.2
v 0 1.2 0.2
v 0 1.3 0.2
v 0.1 0.8 0.2
v 0.1 0.9 0.2
v 0.1 1 0.2
v 0.1 1.1 0.2
v 0.1 1.2 0.2
v 0.1 1.3 0.2
v 0.2 0.4 0.2
v 0.2 0.5 0.2
v 0.2 0.9 0.2
v 0.2 1 0.2
v 0.2 1.2 0.2
v 0.2 1.3 0.2
v 0.3 1 0.2
v 0.3 1.2 0.2
v -0.3 0.5 0.1
v -0.3 0.6 0.1
v -0.3 0.7 0.1
v -0.3 0.9 0.1
v -0.3 1.1 0.1
v -0.3 1.2 0.1
v -0.2 0 0.1
v -0.2 0.1 0.1
v -0.2 0.2 0.1
v -0.2 0.4 0.1
v -0.2 0.5 0.1
v -0.2 0.6 0.1
v -0.2 0.7 0.1
v -0.2 0.9 0.1
v -0.2 1.1 0.1
v -0.2 1.2 0.1
v -0.2 1.3 0.1
v -0.1 0 0.1
v -0.1 0.1 0.1
v -0.1 0.2 0.1
v -0.1 0.4 0.1
v -0.1 1.2 0.1
v -0.1 1.3 0.1
v 0 1.2 0.1
v 0 1.3 0.1
v 0.1 0 0.1
v 0.1 0.1 0.1
v 0.1 0.2 0.1
v 0.1 0.4 0.1
v 0.1 1.2 0.1
v 0.1 1.3 0.1
v 0.2 0 0.1
v 0.2 0.1 0.1
v 0.2 0.2 0.1
v 0.2 0.4 0.1
v 0.2 0.5 0.1
v 0.2 0.6 0.1
v 0.2 0.7 0.1
v 0.2 0.9 0.1
v 0.2 1 0.1
v 0.3 0.5 0.1
v 0.3 0.6 0.1
v 0.3 0.7 0.1
v 0.3 0.9 0.1
v 0.3 1 0.1
v 0.1 1.2 0
v 0.1 1.3 0
v 0.2 1.2 0
v 0.2 1.3 0
v 0.1 1.2 0.1
v 0.1 1.3 0.1
v 0.2 1.2 0.1
v 0.2 1.3 0.1
v -0.3 0.5 0
v -0.3 0.6 0
v -0.3 0.7 0
v -0.3 0.9 0
v -0.2 0 0
v -0.2 0.1 0
v -0.2 0.2 0
v -0.2 0.4 0
v -0.2 0.5 0
v -0.2 0.6 0
v -0.2 0.7 0
v -0.2 0.9 0
v -0.1 0 0
v -0.1 0.1 0
v -0.1 0.2 0
v -0.1 0.4 0
v 0.1 0 0
v 0.1 0.1 0
v 0.1 0.2 0
v 0.1 0.4 0
v 0.2 0 0
v 0.2 0.1 0
v 0.2 0.2 0
v 0.2 0.4 0
v 0.2 0.5 0
v 0.2 0.6 0
v 0.2 0.7 0
v 0.2 0.9 0
v 0.3 0.5 0
v 0.3 0.6 0
v 0.3 0.7 0
v 0.3 0.9 0
v -0.3 0.9 -0.1
v -0.3 1.2 -0.1
v -0.2 0.4 -0.1
v -0.2 0.5 -0.1
v -0.2 0.9 -0.1
v -0.2 1.2 -0.1
v -0.2 1.3 -0.1
v 0.2 0.4 -0.1
v 0.2 0.5 -0.1
v 0.2 0.9 -0.1
v 0.2 1.2 -0.1
v 0.2 1.3 -0.1
v 0.3 0.9 -0.1
v 0.3 1.2 -0.1
v -0.2 0 0.1
v -0.1 0 0.1
v 0.1 0 0.1
v 0.2 0 0.1
v -0.2 0 0
v -0.1 0 0
v 0.1 0 0
v 0.2 0 0
v -0.2 0.4 0.2
v 0.2 0.4 0.2
v -0.2 0.4 0.1
v -0.1 0.4 0.1
v 0.1 0.4 0.1
v 0.2 0.4 0.1
v -0.2 0.4 0
v -0.1 0.4 0
v 0.1 0.4 0
v 0.2 0.4 0
v -0.2 0.4 -0.1
v 0.2 0.4 -0.1
v -0.3 0.5 0.1
v -0.2 0.5 0.1
v 0.2 0.5 0.1
v 0.3 0.5 0.1
v -0.3 0.5 0
v -0.2 0.5 0
v 0.2 0.5 0
v 0.3 0.5 0
v -0.3 0.9 0.2
v -0.2 0.9 0.2
v -0.3 0.9 0.1
v -0.2 0.9 0.1
v -0.3 0.9 0
v -0.2 0.9 0
v 0.2 0.9 0
v 0.3 0.9 0
v -0.3 0.9 -0.1
v -0.2 0.9 -0.1
v 0.2 0.9 -0.1
v 0.3 0.9 -0.1
v 0.2 1 0.2
v 0.3 1 0.2
v 0.2 1 0.1
v 0.3 1 0.1
v -0.3 1.1 0.2
v -0.2 1.1 0.2
v -0.3 1.1 0.1
v -0.2 1.1 0.1
v -0.2 1.2 0.2
v -0.1 1.2 0.2
v 0 1.2 0.2
v 0.1 1.2 0.2
v 0.2 1.2 0.2
v 0.3 1.2 0.2
v -0.3 1.2 0.1
v -0.2 1.2 0.1
v -0.1 1.2 0.1
v 0 1.2 0.1
v 0.1 1.2 0.1
v 0.2 1.2 0.1
v 0.1 1.2 0
v 0.2 1.2 0
v -0.3 1.2 -0.1
v -0.2 1.2 -0.1
v 0.2 1.2 -0.1
v 0.3 1.2 -0.1
v -0.1 1.3 0.2
v 0 1.3 0.2
v 0.1 1.3 0.2
v 0.2 1.3 0.2
v -0.2 1.3 0.1
v -0.1 1.3 0.1
v 0 1.3 0.1
v 0.1 1.3 0.1
v 0.2 1.3 0.1
v 0.1 1.3 0
v 0.2 1.3 0
v -0.2 1.3 -0.1
v 0.2 1.3 -0.1

# faces
f 3/3/1 2/3/1 1/3/1
f 4/3/1 2/3/1 3/3/1
f 5/2/1 4/2/1 3/2/1
f 6/2/1 4/2/1 5/2/1
f 8/4/1 6/4/1 5/4/1
f 9/4/1 6/4/1 8/4/1
f 11/3/1 9/3/1 8/3/1
f 11/3/1 10/3/1 9/3/1
f 11/3/1 8/3/1 7/3/1
f 12/3/1 10/3/1 11/3/1
f 13/3/1 10/3/1 12/3/1
f 14/3/1 10/3/1 13/3/1
f 17/3/1 16/3/1 15/3/1
f 18/3/1 16/3/1 17/3/1
f 19/2/1 18/2/1 17/2/1
f 20/2/1 18/2/1 19/2/1
f 22/1/1 20/1/1 19/1/1
f 23/1/1 20/1/1 22/1/1
f 25/1/1 23/1/1 22/1/1
f 25/1/1 24/1/1 23/1/1
f 25/1/1 22/1/1 21/1/1
f 26/1/1 24/1/1 25/1/1
f 27/1/1 24/1/1 26/1/1
f 28/1/1 24/1/1 27/1/1
f 29/4/1 26/4/1 25/4/1
f 30/4/1 28/4/1 27/4/1
f 31/4/1 29/4/1 25/4/1
f 32/4/1 28/4/1 30/4/1
f 33/4/1 31/4/1 25/4/1
f 34/4/1 31/4/1 33/4/1
f 35/4/1 28/4/1 32/4/1
f 36/4/1 28/4/1 35/4/1
f 39/3/1 38/3/1 37/3/1
f 40/3/1 38/3/1 39/3/1
f 42/3/1 41/3/1 40/3/1
f 43/3/1 41/3/1 42/3/1
f 46/3/1 45/3/1 44/3/1
f 47/3/1 45/3/1 46/3/1
f 50/3/1 49/3/1 48/3/1
f 51/3/1 49/3/1 50/3/1
f 52/2/1 51/2/1 50/2/1
f 53/2/1 51/2/1 52/2/1
f 54/1/1 53/1/1 52/1/1
f 55/1/1 53/1/1 54/1/1
f 58/3/1 57/3/1 56/3/1
f 59/3/1 57/3/1 58/3/1
f 60/3/2 61/3/2 62/3/2
f 62/3/2 61/3/2 63/3/2
f 62/2/2 63/2/2 64/2/2
f 64/2/2 63/2/2 65/2/2
f 64/1/2 65/1/2 66/1/2
f 66/1/2 65/1/2 67/1/2
f 68/3/2 69/3/2 70/3/2
f 70/3/2 69/3/2 71/3/2
f 72/3/2 73/3/2 74/3/2
f 74/3/2 73/3/2 75/3/2
f 76/3/2 77/3/2 78/3/2
f 78/3/2 77/3/2 79/3/2
f 78/2/2 79/2/2 80/2/2
f 80/2/2 79/2/2 81/2/2
f 80/1/2 81/1/2 83/1/2
f 83/1/2 81/1/2 84/1/2
f 83/1/2 84/1/2 86/1/2
f 84/1/2 85/1/2 86/1/2
f 82/1/2 83/1/2 86/1/2
f 86/1/2 85/1/2 87/1/2
f 87/1/2 85/1/2 88/1/2
f 88/1/2 85/1/2 89/1/2
f 86/4/2 87/4/2 90/4/2
f 88/4/2 89/4/2 91/4/2
f 86/4/2 90/4/2 92/4/2
f 91/4/2 89/4/2 93/4/2
f 86/4/2 92/4/2 94/4/2
f 94/4/2 92/4/2 95/4/2
f 93/4/2 89/4/2 96/4/2
f 96/4/2 89/4/2 97/4/2
f 94/2/2 95/2/2 98/2/2
f 98/2/2 95/2/2 99/2/2
f 100/3/2 101/3/2 104/3/2
f 104/3/2 101/3/2 105/3/2
f 102/3/2 103/3/2 106/3/2
f 106/3/2 103/3/2 107/3/2
f 108/3/2 109/3/2 110/3/2
f 110/3/2 109/3/2 111/3/2
f 110/2/2 111/2/2 112/2/2
f 112/2/2 111/2/2 113/2/2
f 112/4/2 113/4/2 114/4/2
f 114/4/2 113/4/2 115/4/2
f 114/3/2 115/3/2 118/3/2
f 115/3/2 116/3/2 118/3/2
f 117/3/2 118/3/2 119/3/2
f 118/3/2 116/3/2 120/3/2
f 119/3/2 118/3/2 120/3/2
f 125/3/3 122/3/3 121/3/3
f 126/3/3 122/3/3 125/3/3
f 127/3/3 122/3/3 126/3/3
f 129/4/3 125/4/3 124/4/3
f 130/2/3 126/2/3 125/2/3
f 130/4/3 125/4/3 129/4/3
f 131/3/3 128/3/3 127/3/3
f 131/2/3 126/2/3 130/2/3
f 131/3/3 127/3/3 126/3/3
f 132/3/3 128/3/3 131/3/3
f 133/3/3 128/3/3 132/3/3
f 135/3/3 133/3/3 132/3/3
f 135/3/3 134/3/3 133/3/3
f 136/3/3 134/3/3 135/3/3
f 137/3/3 130/3/3 129/3/3
f 137/4/3 129/4/3 124/4/3
f 138/2/3 131/2/3 130/2/3
f 138/3/3 130/3/3 137/3/3
f 138/2/3 132/2/3 131/2/3
f 139/2/3 132/2/3 138/2/3
f 140/3/3 135/3/3 132/3/3
f 140/2/3 132/2/3 139/2/3
f 141/3/3 135/3/3 140/3/3
f 143/1/3 124/1/3 123/1/3
f 144/4/3 137/4/3 124/4/3
f 144/1/3 124/1/3 143/1/3
f 144/4/3 138/4/3 137/4/3
f 145/2/3 139/2/3 138/2/3
f 145/4/3 138/4/3 144/4/3
f 146/3/3 142/3/3 141/3/3
f 146/2/3 139/2/3 145/2/3
f 146/3/3 141/3/3 140/3/3
f 146/3/3 140/3/3 139/3/3
f 147/3/3 142/3/3 146/3/3
f 148/3/3 142/3/3 147/3/3
f 149/3/3 147/3/3 146/3/3
f 150/3/3 147/3/3 149/3/3
f 161/3/3 152/3/3 151/3/3
f 162/2/3 153/2/3 152/2/3
f 162/3/3 152/3/3 161/3/3
f 163/4/3 154/4/3 153/4/3
f 163/2/3 153/2/3 162/2/3
f 164/4/3 154/4/3 163/4/3
f 165/3/3 156/3/3 155/3/3
f 166/3/3 156/3/3 165/3/3
f 168/3/3 158/3/3 157/3/3
f 169/2/3 159/2/3 158/2/3
f 169/3/3 158/3/3 168/3/3
f 170/1/3 160/1/3 159/1/3
f 170/2/3 159/2/3 169/2/3
f 171/1/3 160/1/3 170/1/3
f 172/3/3 167/3/3 166/3/3
f 173/3/3 167/3/3 172/3/3
f 180/3/3 175/3/3 174/3/3
f 181/3/3 175/3/3 180/3/3
f 182/3/3 177/3/3 176/3/3
f 183/2/3 178/2/3 177/2/3
f 183/3/3 177/3/3 182/3/3
f 184/1/3 179/1/3 178/1/3
f 184/2/3 178/2/3 183/2/3
f 185/1/3 179/1/3 184/1/3
f 191/3/3 187/3/3 186/3/3
f 192/2/3 188/2/3 187/2/3
f 192/3/3 187/3/3 191/3/3
f 193/4/3 189/4/3 188/4/3
f 193/2/3 188/2/3 192/2/3
f 194/3/3 190/3/3 189/3/3
f 194/4/3 189/4/3 193/4/3
f 195/3/3 190/3/3 194/3/3
f 198/3/3 197/3/3 196/3/3
f 199/3/3 197/3/3 198/3/3
f 200/3/4 201/3/4 202/3/4
f 202/3/4 201/3/4 203/3/4
f 204/3/4 205/3/4 212/3/4
f 205/2/4 206/2/4 213/2/4
f 212/3/4 205/3/4 213/3/4
f 206/4/4 207/4/4 214/4/4
f 213/2/4 206/2/4 214/2/4
f 214/4/4 207/4/4 215/4/4
f 208/3/4 209/3/4 216/3/4
f 209/2/4 210/2/4 217/2/4
f 216/3/4 209/3/4 217/3/4
f 210/1/4 211/1/4 218/1/4
f 217/2/4 210/2/4 218/2/4
f 218/1/4 211/1/4 219/1/4
f 220/3/4 221/3/4 224/3/4
f 221/2/4 222/2/4 225/2/4
f 224/3/4 221/3/4 225/3/4
f 222/1/4 223/1/4 226/1/4
f 225/2/4 222/2/4 226/2/4
f 226/1/4 223/1/4 227/1/4
f 228/3/4 229/3/4 232/3/4
f 229/2/4 230/2/4 233/2/4
f 232/3/4 229/3/4 233/3/4
f 230/4/4 231/4/4 234/4/4
f 233/2/4 230/2/4 234/2/4
f 234/4/4 231/4/4 235/4/4
f 236/3/4 237/3/4 240/3/4
f 240/3/4 237/3/4 241/3/4
f 238/1/4 239/1/4 243/1/4
f 239/4/4 240/4/4 244/4/4
f 243/1/4 239/1/4 244/1/4
f 241/3/4 242/3/4 245/3/4
f 244/4/4 240/4/4 245/4/4
f 240/3/4 241/3/4 245/3/4
f 245/3/4 242/3/4 246/3/4
f 246/3/4 242/3/4 247/3/4
f 245/3/4 246/3/4 248/3/4
f 248/3/4 246/3/4 249/3/4
f 254/3/5 251/3/5 250/3/5
f 255/3/5 251/3/5 254/3/5
f 256/3/5 253/3/5 252/3/5
f 257/3/5 253/3/5 256/3/5
f 260/1/5 259/1/5 258/1/5
f 261/1/5 259/1/5 260/1/5
f 262/1/5 259/1/5 261/1/5
f 263/1/5 259/1/5 262/1/5
f 265/1/5 262/1/5 261/1/5
f 266/1/5 262/1/5 265/1/5
f 268/1/5 265/1/5 264/1/5
f 268/1/5 267/1/5 266/1/5
f 268/1/5 266/1/5 265/1/5
f 269/1/5 267/1/5 268/1/5
f 274/3/5 271/3/5 270/3/5
f 275/3/5 271/3/5 274/3/5
f 276/3/5 273/3/5 272/3/5
f 277/3/5 273/3/5 276/3/5
f 280/3/5 279/3/5 278/3/5
f 281/3/5 279/3/5 280/3/5
f 286/3/5 283/3/5 282/3/5
f 287/3/5 283/3/5 286/3/5
f 288/3/5 285/3/5 284/3/5
f 289/3/5 285/3/5 288/3/5
f 292/3/5 291/3/5 290/3/5
f 293/3/5 291/3/5 292/3/5
f 294/3/6 295/3/6 296/3/6
f 296/3/6 295/3/6 297/3/6
f 298/3/6 299/3/6 305/3/6
f 305/3/6 299/3/6 306/3/6
f 300/3/6 301/3/6 307/3/6
f 307/3/6 301/3/6 308/3/6
f 302/3/6 303/3/6 309/3/6
f 308/3/6 309/3/6 310/3/6
f 309/3/6 303/3/6 311/3/6
f 310/3/6 309/3/6 311/3/6
f 304/3/6 305/3/6 312/3/6
f 312/3/6 305/3/6 313/3/6
f 311/3/6 303/3/6 314/3/6
f 314/3/6 303/3/6 315/3/6
f 316/3/6 317/3/6 321/3/6
f 321/3/6 317/3/6 322/3/6
f 318/3/6 319/3/6 323/3/6
f 323/3/6 319/3/6 324/3/6
f 321/3/6 322/3/6 325/3/6
f 320/3/6 321/3/6 325/3/6
f 322/3/6 323/3/6 325/3/6
f 320/3/6 325/3/6 327/3/6
f 325/3/6 326/3/6 327/3/6
f 327/3/6 326/3/6 328/3/6
