# MagicaVoxel @ Ephtracy

# group
o 

# material
mtllib Greenhouse background.mtl
usemtl palette

# normals
vn -1 0 0
vn 1 0 0
vn 0 0 1
vn 0 0 -1
vn 0 -1 0
vn 0 1 0

# texcoords
vt 0.533203 0.5
vt 0.564453 0.5
vt 0.658203 0.5
vt 0.814453 0.5

# verts
v -2.4 0 0.1
v -2.4 0 0
v -2.4 2.9 0.1
v -2.4 2.9 0
v 2.4 0 0.1
v 2.4 0 0
v 2.4 2.9 0.1
v 2.4 2.9 0
v -2.4 0 0.1
v -2.4 2.9 0.1
v -2.3 0.1 0.1
v -2.3 1.4 0.1
v -2.3 1.5 0.1
v -2.3 2.8 0.1
v -2.2 0 0.1
v -2.2 0.1 0.1
v -2.2 0.2 0.1
v -2.1 0 0.1
v -2.1 0.1 0.1
v -2.1 0.2 0.1
v -2.1 0.3 0.1
v -2 0.2 0.1
v -2 0.3 0.1
v -1.9 2.3 0.1
v -1.9 2.8 0.1
v -1.8 2.3 0.1
v -1.8 2.4 0.1
v -1.8 2.5 0.1
v -1.8 2.7 0.1
v -1.8 2.8 0.1
v -1.8 2.9 0.1
v -1.7 0 0.1
v -1.7 0.1 0.1
v -1.7 0.2 0.1
v -1.7 0.3 0.1
v -1.7 0.5 0.1
v -1.7 2.4 0.1
v -1.7 2.5 0.1
v -1.7 2.8 0.1
v -1.7 2.9 0.1
v -1.6 0 0.1
v -1.6 0.1 0.1
v -1.6 0.2 0.1
v -1.6 0.3 0.1
v -1.6 0.4 0.1
v -1.6 0.5 0.1
v -1.6 0.6 0.1
v -1.6 2.4 0.1
v -1.6 2.7 0.1
v -1.6 2.8 0.1
v -1.5 0.2 0.1
v -1.5 0.3 0.1
v -1.5 0.4 0.1
v -1.5 0.6 0.1
v -1.5 0.7 0.1
v -1.5 2.4 0.1
v -1.5 2.7 0.1
v -1.4 0.6 0.1
v -1.4 0.7 0.1
v -0.9 0.1 0.1
v -0.9 1.4 0.1
v -0.9 1.5 0.1
v -0.9 2.8 0.1
v -0.8 0.1 0.1
v -0.8 1.4 0.1
v -0.8 1.5 0.1
v -0.8 2.8 0.1
v -0.7 2.6 0.1
v -0.7 2.8 0.1
v -0.7 2.9 0.1
v -0.6 2.6 0.1
v -0.6 2.8 0.1
v -0.6 2.9 0.1
v -0.3 0.4 0.1
v -0.3 0.5 0.1
v -0.2 0.3 0.1
v -0.2 0.4 0.1
v -0.2 0.5 0.1
v -0.0999999 0.2 0.1
v -0.0999999 0.3 0.1
v 0 0 0.1
v 0 0.1 0.1
v 0 0.2 0.1
v 0 0.4 0.1
v 0 2.4 0.1
v 0 2.6 0.1
v 0.1 0 0.1
v 0.1 0.1 0.1
v 0.1 0.2 0.1
v 0.1 0.3 0.1
v 0.1 2.4 0.1
v 0.1 2.6 0.1
v 0.1 2.7 0.1
v 0.2 0.1 0.1
v 0.2 0.2 0.1
v 0.2 2.5 0.1
v 0.2 2.6 0.1
v 0.2 2.7 0.1
v 0.2 2.8 0.1
v 0.2 2.9 0.1
v 0.3 0.2 0.1
v 0.3 0.3 0.1
v 0.3 2.4 0.1
v 0.3 2.5 0.1
v 0.3 2.8 0.1
v 0.3 2.9 0.1
v 0.4 2.4 0.1
v 0.4 2.5 0.1
v 0.8 0.1 0.1
v 0.8 1.4 0.1
v 0.8 1.5 0.1
v 0.8 2.8 0.1
v 0.9 0.1 0.1
v 0.9 1.4 0.1
v 0.9 1.5 0.1
v 0.9 2.8 0.1
v 1.1 2.5 0.1
v 1.1 2.8 0.1
v 1.1 2.9 0.1
v 1.2 2.5 0.1
v 1.2 2.8 0.1
v 1.2 2.9 0.1
v 1.3 0.5 0.1
v 1.3 0.6 0.1
v 1.4 0 0.1
v 1.4 0.1 0.1
v 1.4 0.5 0.1
v 1.4 0.6 0.1
v 1.5 0 0.1
v 1.5 0.1 0.1
v 1.5 0.2 0.1
v 1.5 0.5 0.1
v 1.6 0.1 0.1
v 1.6 0.2 0.1
v 1.6 0.3 0.1
v 1.7 0.2 0.1
v 1.7 0.3 0.1
v 1.7 0.4 0.1
v 1.7 2.7 0.1
v 1.7 2.8 0.1
v 1.7 2.9 0.1
v 1.8 0.3 0.1
v 1.8 0.4 0.1
v 1.8 2.8 0.1
v 1.8 2.9 0.1
v 1.9 2.4 0.1
v 1.9 2.7 0.1
v 1.9 2.8 0.1
v 2 0.3 0.1
v 2 0.4 0.1
v 2 2.4 0.1
v 2 2.7 0.1
v 2.1 0 0.1
v 2.1 0.1 0.1
v 2.1 0.3 0.1
v 2.1 0.4 0.1
v 2.2 0 0.1
v 2.2 0.1 0.1
v 2.2 0.3 0.1
v 2.3 0.1 0.1
v 2.3 1.4 0.1
v 2.3 1.5 0.1
v 2.3 2.8 0.1
v 2.4 0 0.1
v 2.4 2.9 0.1
v -2.4 0 0
v -2.4 2.9 0
v -2.3 0.1 0
v -2.3 1.4 0
v -2.3 1.5 0
v -2.3 2.8 0
v -2.2 0 0
v -2.2 0.1 0
v -2.2 0.2 0
v -2.1 0 0
v -2.1 0.1 0
v -2.1 0.2 0
v -2.1 0.3 0
v -2 0.2 0
v -2 0.3 0
v -1.9 2.3 0
v -1.9 2.8 0
v -1.8 2.3 0
v -1.8 2.4 0
v -1.8 2.5 0
v -1.8 2.7 0
v -1.8 2.8 0
v -1.8 2.9 0
v -1.7 0 0
v -1.7 0.1 0
v -1.7 0.2 0
v -1.7 0.3 0
v -1.7 0.5 0
v -1.7 2.4 0
v -1.7 2.5 0
v -1.7 2.8 0
v -1.7 2.9 0
v -1.6 0 0
v -1.6 0.1 0
v -1.6 0.2 0
v -1.6 0.3 0
v -1.6 0.4 0
v -1.6 0.5 0
v -1.6 0.6 0
v -1.6 2.4 0
v -1.6 2.7 0
v -1.6 2.8 0
v -1.5 0.2 0
v -1.5 0.3 0
v -1.5 0.4 0
v -1.5 0.6 0
v -1.5 0.7 0
v -1.5 2.4 0
v -1.5 2.7 0
v -1.4 0.6 0
v -1.4 0.7 0
v -0.9 0.1 0
v -0.9 1.4 0
v -0.9 1.5 0
v -0.9 2.8 0
v -0.8 0.1 0
v -0.8 1.4 0
v -0.8 1.5 0
v -0.8 2.8 0
v -0.7 2.6 0
v -0.7 2.8 0
v -0.7 2.9 0
v -0.6 2.6 0
v -0.6 2.8 0
v -0.6 2.9 0
v -0.3 0.4 0
v -0.3 0.5 0
v -0.2 0.3 0
v -0.2 0.4 0
v -0.2 0.5 0
v -0.0999999 0.2 0
v -0.0999999 0.3 0
v 0 0 0
v 0 0.1 0
v 0 0.2 0
v 0 0.4 0
v 0 2.4 0
v 0 2.6 0
v 0.1 0 0
v 0.1 0.1 0
v 0.1 0.2 0
v 0.1 0.3 0
v 0.1 2.4 0
v 0.1 2.6 0
v 0.1 2.7 0
v 0.2 0.1 0
v 0.2 0.2 0
v 0.2 2.5 0
v 0.2 2.6 0
v 0.2 2.7 0
v 0.2 2.8 0
v 0.2 2.9 0
v 0.3 0.2 0
v 0.3 0.3 0
v 0.3 2.4 0
v 0.3 2.5 0
v 0.3 2.8 0
v 0.3 2.9 0
v 0.4 2.4 0
v 0.4 2.5 0
v 0.8 0.1 0
v 0.8 1.4 0
v 0.8 1.5 0
v 0.8 2.8 0
v 0.9 0.1 0
v 0.9 1.4 0
v 0.9 1.5 0
v 0.9 2.8 0
v 1.1 2.5 0
v 1.1 2.8 0
v 1.1 2.9 0
v 1.2 2.5 0
v 1.2 2.8 0
v 1.2 2.9 0
v 1.3 0.5 0
v 1.3 0.6 0
v 1.4 0 0
v 1.4 0.1 0
v 1.4 0.5 0
v 1.4 0.6 0
v 1.5 0 0
v 1.5 0.1 0
v 1.5 0.2 0
v 1.5 0.5 0
v 1.6 0.1 0
v 1.6 0.2 0
v 1.6 0.3 0
v 1.7 0.2 0
v 1.7 0.3 0
v 1.7 0.4 0
v 1.7 2.7 0
v 1.7 2.8 0
v 1.7 2.9 0
v 1.8 0.3 0
v 1.8 0.4 0
v 1.8 2.8 0
v 1.8 2.9 0
v 1.9 2.4 0
v 1.9 2.7 0
v 1.9 2.8 0
v 2 0.3 0
v 2 0.4 0
v 2 2.4 0
v 2 2.7 0
v 2.1 0 0
v 2.1 0.1 0
v 2.1 0.3 0
v 2.1 0.4 0
v 2.2 0 0
v 2.2 0.1 0
v 2.2 0.3 0
v 2.3 0.1 0
v 2.3 1.4 0
v 2.3 1.5 0
v 2.3 2.8 0
v 2.4 0 0
v 2.4 2.9 0
v -2.4 0 0.1
v -2.2 0 0.1
v -2.1 0 0.1
v -1.7 0 0.1
v -1.6 0 0.1
v 0 0 0.1
v 0.1 0 0.1
v 1.4 0 0.1
v 1.5 0 0.1
v 2.1 0 0.1
v 2.2 0 0.1
v 2.4 0 0.1
v -2.4 0 0
v -2.2 0 0
v -2.1 0 0
v -1.7 0 0
v -1.6 0 0
v 0 0 0
v 0.1 0 0
v 1.4 0 0
v 1.5 0 0
v 2.1 0 0
v 2.2 0 0
v 2.4 0 0
v -2.4 2.9 0.1
v -1.8 2.9 0.1
v -1.7 2.9 0.1
v -0.7 2.9 0.1
v -0.6 2.9 0.1
v 0.2 2.9 0.1
v 0.3 2.9 0.1
v 1.1 2.9 0.1
v 1.2 2.9 0.1
v 1.7 2.9 0.1
v 1.8 2.9 0.1
v 2.4 2.9 0.1
v -2.4 2.9 0
v -1.8 2.9 0
v -1.7 2.9 0
v -0.7 2.9 0
v -0.6 2.9 0
v 0.2 2.9 0
v 0.3 2.9 0
v 1.1 2.9 0
v 1.2 2.9 0
v 1.7 2.9 0
v 1.8 2.9 0
v 2.4 2.9 0

# faces
f 3/4/1 2/4/1 1/4/1
f 4/4/1 2/4/1 3/4/1
f 5/4/2 6/4/2 7/4/2
f 7/4/2 6/4/2 8/4/2
f 11/4/3 10/4/3 9/4/3
f 12/4/3 10/4/3 11/4/3
f 13/4/3 10/4/3 12/4/3
f 14/4/3 10/4/3 13/4/3
f 15/4/3 11/4/3 9/4/3
f 16/2/3 12/2/3 11/2/3
f 16/4/3 11/4/3 15/4/3
f 17/2/3 12/2/3 16/2/3
f 18/3/3 16/3/3 15/3/3
f 19/1/3 17/1/3 16/1/3
f 19/3/3 16/3/3 18/3/3
f 20/2/3 12/2/3 17/2/3
f 20/1/3 17/1/3 19/1/3
f 21/2/3 12/2/3 20/2/3
f 22/2/3 20/2/3 19/2/3
f 22/1/3 21/1/3 20/1/3
f 23/2/3 12/2/3 21/2/3
f 23/1/3 21/1/3 22/1/3
f 24/2/3 14/2/3 13/2/3
f 25/4/3 10/4/3 14/4/3
f 25/2/3 14/2/3 24/2/3
f 26/2/3 24/2/3 13/2/3
f 26/1/3 25/1/3 24/1/3
f 27/1/3 25/1/3 26/1/3
f 28/1/3 25/1/3 27/1/3
f 29/1/3 25/1/3 28/1/3
f 30/4/3 10/4/3 25/4/3
f 30/1/3 25/1/3 29/1/3
f 31/4/3 10/4/3 30/4/3
f 32/4/3 19/4/3 18/4/3
f 33/2/3 22/2/3 19/2/3
f 33/4/3 19/4/3 32/4/3
f 33/2/3 23/2/3 22/2/3
f 34/2/3 23/2/3 33/2/3
f 35/2/3 12/2/3 23/2/3
f 35/2/3 23/2/3 34/2/3
f 36/2/3 12/2/3 35/2/3
f 37/2/3 27/2/3 26/2/3
f 37/1/3 28/1/3 27/1/3
f 38/2/3 29/2/3 28/2/3
f 38/1/3 28/1/3 37/1/3
f 39/1/3 31/1/3 30/1/3
f 39/1/3 30/1/3 29/1/3
f 40/1/3 31/1/3 39/1/3
f 41/3/3 33/3/3 32/3/3
f 42/1/3 34/1/3 33/1/3
f 42/3/3 33/3/3 41/3/3
f 43/2/3 35/2/3 34/2/3
f 43/1/3 34/1/3 42/1/3
f 44/1/3 36/1/3 35/1/3
f 44/2/3 35/2/3 43/2/3
f 45/1/3 36/1/3 44/1/3
f 46/2/3 12/2/3 36/2/3
f 46/1/3 36/1/3 45/1/3
f 47/2/3 12/2/3 46/2/3
f 48/2/3 37/2/3 26/2/3
f 48/2/3 38/2/3 37/2/3
f 49/2/3 29/2/3 38/2/3
f 49/2/3 38/2/3 48/2/3
f 49/1/3 39/1/3 29/1/3
f 50/4/3 40/4/3 39/4/3
f 50/1/3 39/1/3 49/1/3
f 51/2/3 43/2/3 42/2/3
f 51/1/3 44/1/3 43/1/3
f 52/2/3 45/2/3 44/2/3
f 52/1/3 44/1/3 51/1/3
f 53/1/3 47/1/3 46/1/3
f 53/2/3 45/2/3 52/2/3
f 53/1/3 46/1/3 45/1/3
f 54/2/3 12/2/3 47/2/3
f 54/1/3 47/1/3 53/1/3
f 55/2/3 12/2/3 54/2/3
f 56/2/3 48/2/3 26/2/3
f 56/1/3 49/1/3 48/1/3
f 57/2/3 50/2/3 49/2/3
f 57/1/3 49/1/3 56/1/3
f 58/2/3 53/2/3 52/2/3
f 58/2/3 52/2/3 51/2/3
f 58/1/3 55/1/3 54/1/3
f 58/2/3 54/2/3 53/2/3
f 59/2/3 12/2/3 55/2/3
f 59/1/3 55/1/3 58/1/3
f 60/2/3 58/2/3 51/2/3
f 60/2/3 51/2/3 42/2/3
f 60/2/3 59/2/3 58/2/3
f 60/4/3 42/4/3 41/4/3
f 61/4/3 13/4/3 12/4/3
f 61/2/3 59/2/3 60/2/3
f 61/2/3 12/2/3 59/2/3
f 62/2/3 26/2/3 13/2/3
f 62/4/3 13/4/3 61/4/3
f 62/2/3 56/2/3 26/2/3
f 62/2/3 57/2/3 56/2/3
f 63/2/3 50/2/3 57/2/3
f 63/2/3 57/2/3 62/2/3
f 63/4/3 40/4/3 50/4/3
f 64/4/3 62/4/3 61/4/3
f 64/4/3 60/4/3 41/4/3
f 64/4/3 63/4/3 62/4/3
f 64/4/3 61/4/3 60/4/3
f 65/4/3 63/4/3 64/4/3
f 66/4/3 63/4/3 65/4/3
f 67/4/3 40/4/3 63/4/3
f 67/4/3 63/4/3 66/4/3
f 68/2/3 67/2/3 66/2/3
f 69/4/3 40/4/3 67/4/3
f 69/2/3 67/2/3 68/2/3
f 70/4/3 40/4/3 69/4/3
f 71/2/3 68/2/3 66/2/3
f 71/1/3 69/1/3 68/1/3
f 71/1/3 70/1/3 69/1/3
f 72/1/3 70/1/3 71/1/3
f 73/1/3 70/1/3 72/1/3
f 74/2/3 65/2/3 64/2/3
f 75/2/3 65/2/3 74/2/3
f 76/2/3 74/2/3 64/2/3
f 77/1/3 75/1/3 74/1/3
f 77/2/3 74/2/3 76/2/3
f 78/2/3 65/2/3 75/2/3
f 78/1/3 75/1/3 77/1/3
f 79/2/3 76/2/3 64/2/3
f 80/1/3 77/1/3 76/1/3
f 80/2/3 76/2/3 79/2/3
f 81/4/3 64/4/3 41/4/3
f 82/2/3 79/2/3 64/2/3
f 82/4/3 64/4/3 81/4/3
f 83/1/3 80/1/3 79/1/3
f 83/2/3 79/2/3 82/2/3
f 84/1/3 77/1/3 80/1/3
f 84/1/3 80/1/3 83/1/3
f 84/2/3 78/2/3 77/2/3
f 85/2/3 71/2/3 66/2/3
f 85/2/3 72/2/3 71/2/3
f 86/2/3 72/2/3 85/2/3
f 87/3/3 82/3/3 81/3/3
f 88/1/3 83/1/3 82/1/3
f 88/3/3 82/3/3 87/3/3
f 89/2/3 84/2/3 83/2/3
f 89/1/3 83/1/3 88/1/3
f 90/2/3 84/2/3 89/2/3
f 91/2/3 85/2/3 66/2/3
f 91/1/3 86/1/3 85/1/3
f 92/2/3 72/2/3 86/2/3
f 92/1/3 86/1/3 91/1/3
f 93/2/3 72/2/3 92/2/3
f 94/4/3 88/4/3 87/4/3
f 94/1/3 90/1/3 89/1/3
f 94/1/3 89/1/3 88/1/3
f 95/1/3 90/1/3 94/1/3
f 96/2/3 92/2/3 91/2/3
f 97/1/3 93/1/3 92/1/3
f 97/2/3 92/2/3 96/2/3
f 98/2/3 72/2/3 93/2/3
f 98/1/3 93/1/3 97/1/3
f 99/4/3 73/4/3 72/4/3
f 99/2/3 72/2/3 98/2/3
f 100/4/3 73/4/3 99/4/3
f 101/1/3 90/1/3 95/1/3
f 101/2/3 95/2/3 94/2/3
f 102/2/3 84/2/3 90/2/3
f 102/1/3 90/1/3 101/1/3
f 103/2/3 91/2/3 66/2/3
f 103/2/3 96/2/3 91/2/3
f 104/1/3 97/1/3 96/1/3
f 104/2/3 96/2/3 103/2/3
f 104/1/3 98/1/3 97/1/3
f 104/1/3 99/1/3 98/1/3
f 104/1/3 100/1/3 99/1/3
f 105/1/3 100/1/3 104/1/3
f 106/1/3 100/1/3 105/1/3
f 107/2/3 103/2/3 66/2/3
f 107/1/3 104/1/3 103/1/3
f 108/2/3 105/2/3 104/2/3
f 108/1/3 104/1/3 107/1/3
f 109/4/3 94/4/3 87/4/3
f 109/2/3 101/2/3 94/2/3
f 109/2/3 102/2/3 101/2/3
f 110/4/3 66/4/3 65/4/3
f 110/2/3 102/2/3 109/2/3
f 110/2/3 78/2/3 84/2/3
f 110/2/3 65/2/3 78/2/3
f 110/2/3 84/2/3 102/2/3
f 111/2/3 107/2/3 66/2/3
f 111/4/3 66/4/3 110/4/3
f 111/2/3 108/2/3 107/2/3
f 112/4/3 106/4/3 105/4/3
f 112/2/3 108/2/3 111/2/3
f 112/2/3 105/2/3 108/2/3
f 113/4/3 109/4/3 87/4/3
f 113/4/3 111/4/3 110/4/3
f 113/4/3 112/4/3 111/4/3
f 113/4/3 110/4/3 109/4/3
f 114/4/3 112/4/3 113/4/3
f 115/4/3 112/4/3 114/4/3
f 116/4/3 106/4/3 112/4/3
f 116/4/3 112/4/3 115/4/3
f 117/2/3 116/2/3 115/2/3
f 118/4/3 106/4/3 116/4/3
f 118/2/3 116/2/3 117/2/3
f 119/4/3 106/4/3 118/4/3
f 120/2/3 117/2/3 115/2/3
f 120/1/3 118/1/3 117/1/3
f 120/1/3 119/1/3 118/1/3
f 121/1/3 119/1/3 120/1/3
f 122/1/3 119/1/3 121/1/3
f 123/2/3 114/2/3 113/2/3
f 124/2/3 114/2/3 123/2/3
f 125/4/3 113/4/3 87/4/3
f 126/2/3 123/2/3 113/2/3
f 126/4/3 113/4/3 125/4/3
f 127/1/3 124/1/3 123/1/3
f 127/2/3 123/2/3 126/2/3
f 128/2/3 114/2/3 124/2/3
f 128/1/3 124/1/3 127/1/3
f 129/3/3 126/3/3 125/3/3
f 130/1/3 127/1/3 126/1/3
f 130/3/3 126/3/3 129/3/3
f 131/1/3 127/1/3 130/1/3
f 132/2/3 128/2/3 127/2/3
f 132/1/3 127/1/3 131/1/3
f 133/1/3 131/1/3 130/1/3
f 133/4/3 130/4/3 129/4/3
f 134/2/3 132/2/3 131/2/3
f 134/1/3 131/1/3 133/1/3
f 135/2/3 132/2/3 134/2/3
f 136/2/3 134/2/3 133/2/3
f 136/1/3 135/1/3 134/1/3
f 137/2/3 132/2/3 135/2/3
f 137/1/3 135/1/3 136/1/3
f 138/2/3 132/2/3 137/2/3
f 139/2/3 121/2/3 120/2/3
f 140/4/3 122/4/3 121/4/3
f 140/2/3 121/2/3 139/2/3
f 141/4/3 122/4/3 140/4/3
f 142/2/3 137/2/3 136/2/3
f 142/1/3 138/1/3 137/1/3
f 143/2/3 132/2/3 138/2/3
f 143/1/3 138/1/3 142/1/3
f 144/1/3 141/1/3 140/1/3
f 144/1/3 140/1/3 139/1/3
f 145/1/3 141/1/3 144/1/3
f 146/2/3 120/2/3 115/2/3
f 146/2/3 139/2/3 120/2/3
f 147/1/3 144/1/3 139/1/3
f 147/2/3 139/2/3 146/2/3
f 148/4/3 145/4/3 144/4/3
f 148/1/3 144/1/3 147/1/3
f 149/2/3 142/2/3 136/2/3
f 149/2/3 143/2/3 142/2/3
f 150/2/3 132/2/3 143/2/3
f 150/2/3 143/2/3 149/2/3
f 151/1/3 147/1/3 146/1/3
f 151/2/3 146/2/3 115/2/3
f 152/2/3 148/2/3 147/2/3
f 152/1/3 147/1/3 151/1/3
f 153/4/3 133/4/3 129/4/3
f 154/2/3 136/2/3 133/2/3
f 154/4/3 133/4/3 153/4/3
f 154/2/3 149/2/3 136/2/3
f 155/1/3 150/1/3 149/1/3
f 155/2/3 149/2/3 154/2/3
f 156/2/3 132/2/3 150/2/3
f 156/1/3 150/1/3 155/1/3
f 157/3/3 154/3/3 153/3/3
f 158/1/3 155/1/3 154/1/3
f 158/3/3 154/3/3 157/3/3
f 159/2/3 156/2/3 155/2/3
f 159/1/3 155/1/3 158/1/3
f 160/4/3 158/4/3 157/4/3
f 160/2/3 159/2/3 158/2/3
f 161/4/3 115/4/3 114/4/3
f 161/2/3 159/2/3 160/2/3
f 161/2/3 114/2/3 128/2/3
f 161/2/3 156/2/3 159/2/3
f 161/2/3 132/2/3 156/2/3
f 161/2/3 128/2/3 132/2/3
f 162/2/3 151/2/3 115/2/3
f 162/4/3 115/4/3 161/4/3
f 162/2/3 152/2/3 151/2/3
f 163/4/3 145/4/3 148/4/3
f 163/2/3 152/2/3 162/2/3
f 163/2/3 148/2/3 152/2/3
f 164/4/3 160/4/3 157/4/3
f 164/4/3 162/4/3 161/4/3
f 164/4/3 163/4/3 162/4/3
f 164/4/3 161/4/3 160/4/3
f 165/4/3 145/4/3 163/4/3
f 165/4/3 163/4/3 164/4/3
f 166/4/4 167/4/4 168/4/4
f 168/4/4 167/4/4 169/4/4
f 169/4/4 167/4/4 170/4/4
f 170/4/4 167/4/4 171/4/4
f 166/4/4 168/4/4 172/4/4
f 168/2/4 169/2/4 173/2/4
f 172/4/4 168/4/4 173/4/4
f 173/2/4 169/2/4 174/2/4
f 172/3/4 173/3/4 175/3/4
f 173/1/4 174/1/4 176/1/4
f 175/3/4 173/3/4 176/3/4
f 174/2/4 169/2/4 177/2/4
f 176/1/4 174/1/4 177/1/4
f 177/2/4 169/2/4 178/2/4
f 176/2/4 177/2/4 179/2/4
f 177/1/4 178/1/4 179/1/4
f 178/2/4 169/2/4 180/2/4
f 179/1/4 178/1/4 180/1/4
f 170/2/4 171/2/4 181/2/4
f 171/4/4 167/4/4 182/4/4
f 181/2/4 171/2/4 182/2/4
f 170/2/4 181/2/4 183/2/4
f 181/1/4 182/1/4 183/1/4
f 183/1/4 182/1/4 184/1/4
f 184/1/4 182/1/4 185/1/4
f 185/1/4 182/1/4 186/1/4
f 182/4/4 167/4/4 187/4/4
f 186/1/4 182/1/4 187/1/4
f 187/4/4 167/4/4 188/4/4
f 175/4/4 176/4/4 189/4/4
f 176/2/4 179/2/4 190/2/4
f 189/4/4 176/4/4 190/4/4
f 179/2/4 180/2/4 190/2/4
f 190/2/4 180/2/4 191/2/4
f 180/2/4 169/2/4 192/2/4
f 191/2/4 180/2/4 192/2/4
f 192/2/4 169/2/4 193/2/4
f 183/2/4 184/2/4 194/2/4
f 184/1/4 185/1/4 194/1/4
f 185/2/4 186/2/4 195/2/4
f 194/1/4 185/1/4 195/1/4
f 187/1/4 188/1/4 196/1/4
f 186/1/4 187/1/4 196/1/4
f 196/1/4 188/1/4 197/1/4
f 189/3/4 190/3/4 198/3/4
f 190/1/4 191/1/4 199/1/4
f 198/3/4 190/3/4 199/3/4
f 191/2/4 192/2/4 200/2/4
f 199/1/4 191/1/4 200/1/4
f 192/1/4 193/1/4 201/1/4
f 200/2/4 192/2/4 201/2/4
f 201/1/4 193/1/4 202/1/4
f 193/2/4 169/2/4 203/2/4
f 202/1/4 193/1/4 203/1/4
f 203/2/4 169/2/4 204/2/4
f 183/2/4 194/2/4 205/2/4
f 194/2/4 195/2/4 205/2/4
f 195/2/4 186/2/4 206/2/4
f 205/2/4 195/2/4 206/2/4
f 186/1/4 196/1/4 206/1/4
f 196/4/4 197/4/4 207/4/4
f 206/1/4 196/1/4 207/1/4
f 199/2/4 200/2/4 208/2/4
f 200/1/4 201/1/4 208/1/4
f 201/2/4 202/2/4 209/2/4
f 208/1/4 201/1/4 209/1/4
f 203/1/4 204/1/4 210/1/4
f 209/2/4 202/2/4 210/2/4
f 202/1/4 203/1/4 210/1/4
f 204/2/4 169/2/4 211/2/4
f 210/1/4 204/1/4 211/1/4
f 211/2/4 169/2/4 212/2/4
f 183/2/4 205/2/4 213/2/4
f 205/1/4 206/1/4 213/1/4
f 206/2/4 207/2/4 214/2/4
f 213/1/4 206/1/4 214/1/4
f 209/2/4 210/2/4 215/2/4
f 208/2/4 209/2/4 215/2/4
f 211/1/4 212/1/4 215/1/4
f 210/2/4 211/2/4 215/2/4
f 212/2/4 169/2/4 216/2/4
f 215/1/4 212/1/4 216/1/4
f 208/2/4 215/2/4 217/2/4
f 199/2/4 208/2/4 217/2/4
f 215/2/4 216/2/4 217/2/4
f 198/4/4 199/4/4 217/4/4
f 169/4/4 170/4/4 218/4/4
f 217/2/4 216/2/4 218/2/4
f 216/2/4 169/2/4 218/2/4
f 170/2/4 183/2/4 219/2/4
f 218/4/4 170/4/4 219/4/4
f 183/2/4 213/2/4 219/2/4
f 213/2/4 214/2/4 219/2/4
f 214/2/4 207/2/4 220/2/4
f 219/2/4 214/2/4 220/2/4
f 207/4/4 197/4/4 220/4/4
f 218/4/4 219/4/4 221/4/4
f 198/4/4 217/4/4 221/4/4
f 219/4/4 220/4/4 221/4/4
f 217/4/4 218/4/4 221/4/4
f 221/4/4 220/4/4 222/4/4
f 222/4/4 220/4/4 223/4/4
f 220/4/4 197/4/4 224/4/4
f 223/4/4 220/4/4 224/4/4
f 223/2/4 224/2/4 225/2/4
f 224/4/4 197/4/4 226/4/4
f 225/2/4 224/2/4 226/2/4
f 226/4/4 197/4/4 227/4/4
f 223/2/4 225/2/4 228/2/4
f 225/1/4 226/1/4 228/1/4
f 226/1/4 227/1/4 228/1/4
f 228/1/4 227/1/4 229/1/4
f 229/1/4 227/1/4 230/1/4
f 221/2/4 222/2/4 231/2/4
f 231/2/4 222/2/4 232/2/4
f 221/2/4 231/2/4 233/2/4
f 231/1/4 232/1/4 234/1/4
f 233/2/4 231/2/4 234/2/4
f 232/2/4 222/2/4 235/2/4
f 234/1/4 232/1/4 235/1/4
f 221/2/4 233/2/4 236/2/4
f 233/1/4 234/1/4 237/1/4
f 236/2/4 233/2/4 237/2/4
f 198/4/4 221/4/4 238/4/4
f 221/2/4 236/2/4 239/2/4
f 238/4/4 221/4/4 239/4/4
f 236/1/4 237/1/4 240/1/4
f 239/2/4 236/2/4 240/2/4
f 237/1/4 234/1/4 241/1/4
f 240/1/4 237/1/4 241/1/4
f 234/2/4 235/2/4 241/2/4
f 223/2/4 228/2/4 242/2/4
f 228/2/4 229/2/4 242/2/4
f 242/2/4 229/2/4 243/2/4
f 238/3/4 239/3/4 244/3/4
f 239/1/4 240/1/4 245/1/4
f 244/3/4 239/3/4 245/3/4
f 240/2/4 241/2/4 246/2/4
f 245/1/4 240/1/4 246/1/4
f 246/2/4 241/2/4 247/2/4
f 223/2/4 242/2/4 248/2/4
f 242/1/4 243/1/4 248/1/4
f 243/2/4 229/2/4 249/2/4
f 248/1/4 243/1/4 249/1/4
f 249/2/4 229/2/4 250/2/4
f 244/4/4 245/4/4 251/4/4
f 246/1/4 247/1/4 251/1/4
f 245/1/4 246/1/4 251/1/4
f 251/1/4 247/1/4 252/1/4
f 248/2/4 249/2/4 253/2/4
f 249/1/4 250/1/4 254/1/4
f 253/2/4 249/2/4 254/2/4
f 250/2/4 229/2/4 255/2/4
f 254/1/4 250/1/4 255/1/4
f 229/4/4 230/4/4 256/4/4
f 255/2/4 229/2/4 256/2/4
f 256/4/4 230/4/4 257/4/4
f 252/1/4 247/1/4 258/1/4
f 251/2/4 252/2/4 258/2/4
f 247/2/4 241/2/4 259/2/4
f 258/1/4 247/1/4 259/1/4
f 223/2/4 248/2/4 260/2/4
f 248/2/4 253/2/4 260/2/4
f 253/1/4 254/1/4 261/1/4
f 260/2/4 253/2/4 261/2/4
f 254/1/4 255/1/4 261/1/4
f 255/1/4 256/1/4 261/1/4
f 256/1/4 257/1/4 261/1/4
f 261/1/4 257/1/4 262/1/4
f 262/1/4 257/1/4 263/1/4
f 223/2/4 260/2/4 264/2/4
f 260/1/4 261/1/4 264/1/4
f 261/2/4 262/2/4 265/2/4
f 264/1/4 261/1/4 265/1/4
f 244/4/4 251/4/4 266/4/4
f 251/2/4 258/2/4 266/2/4
f 258/2/4 259/2/4 266/2/4
f 222/4/4 223/4/4 267/4/4
f 266/2/4 259/2/4 267/2/4
f 241/2/4 235/2/4 267/2/4
f 235/2/4 222/2/4 267/2/4
f 259/2/4 241/2/4 267/2/4
f 223/2/4 264/2/4 268/2/4
f 267/4/4 223/4/4 268/4/4
f 264/2/4 265/2/4 268/2/4
f 262/4/4 263/4/4 269/4/4
f 268/2/4 265/2/4 269/2/4
f 265/2/4 262/2/4 269/2/4
f 244/4/4 266/4/4 270/4/4
f 267/4/4 268/4/4 270/4/4
f 268/4/4 269/4/4 270/4/4
f 266/4/4 267/4/4 270/4/4
f 270/4/4 269/4/4 271/4/4
f 271/4/4 269/4/4 272/4/4
f 269/4/4 263/4/4 273/4/4
f 272/4/4 269/4/4 273/4/4
f 272/2/4 273/2/4 274/2/4
f 273/4/4 263/4/4 275/4/4
f 274/2/4 273/2/4 275/2/4
f 275/4/4 263/4/4 276/4/4
f 272/2/4 274/2/4 277/2/4
f 274/1/4 275/1/4 277/1/4
f 275/1/4 276/1/4 277/1/4
f 277/1/4 276/1/4 278/1/4
f 278/1/4 276/1/4 279/1/4
f 270/2/4 271/2/4 280/2/4
f 280/2/4 271/2/4 281/2/4
f 244/4/4 270/4/4 282/4/4
f 270/2/4 280/2/4 283/2/4
f 282/4/4 270/4/4 283/4/4
f 280/1/4 281/1/4 284/1/4
f 283/2/4 280/2/4 284/2/4
f 281/2/4 271/2/4 285/2/4
f 284/1/4 281/1/4 285/1/4
f 282/3/4 283/3/4 286/3/4
f 283/1/4 284/1/4 287/1/4
f 286/3/4 283/3/4 287/3/4
f 287/1/4 284/1/4 288/1/4
f 284/2/4 285/2/4 289/2/4
f 288/1/4 284/1/4 289/1/4
f 287/1/4 288/1/4 290/1/4
f 286/4/4 287/4/4 290/4/4
f 288/2/4 289/2/4 291/2/4
f 290/1/4 288/1/4 291/1/4
f 291/2/4 289/2/4 292/2/4
f 290/2/4 291/2/4 293/2/4
f 291/1/4 292/1/4 293/1/4
f 292/2/4 289/2/4 294/2/4
f 293/1/4 292/1/4 294/1/4
f 294/2/4 289/2/4 295/2/4
f 277/2/4 278/2/4 296/2/4
f 278/4/4 279/4/4 297/4/4
f 296/2/4 278/2/4 297/2/4
f 297/4/4 279/4/4 298/4/4
f 293/2/4 294/2/4 299/2/4
f 294/1/4 295/1/4 299/1/4
f 295/2/4 289/2/4 300/2/4
f 299/1/4 295/1/4 300/1/4
f 297/1/4 298/1/4 301/1/4
f 296/1/4 297/1/4 301/1/4
f 301/1/4 298/1/4 302/1/4
f 272/2/4 277/2/4 303/2/4
f 277/2/4 296/2/4 303/2/4
f 296/1/4 301/1/4 304/1/4
f 303/2/4 296/2/4 304/2/4
f 301/4/4 302/4/4 305/4/4
f 304/1/4 301/1/4 305/1/4
f 293/2/4 299/2/4 306/2/4
f 299/2/4 300/2/4 306/2/4
f 300/2/4 289/2/4 307/2/4
f 306/2/4 300/2/4 307/2/4
f 303/1/4 304/1/4 308/1/4
f 272/2/4 303/2/4 308/2/4
f 304/2/4 305/2/4 309/2/4
f 308/1/4 304/1/4 309/1/4
f 286/4/4 290/4/4 310/4/4
f 290/2/4 293/2/4 311/2/4
f 310/4/4 290/4/4 311/4/4
f 293/2/4 306/2/4 311/2/4
f 306/1/4 307/1/4 312/1/4
f 311/2/4 306/2/4 312/2/4
f 307/2/4 289/2/4 313/2/4
f 312/1/4 307/1/4 313/1/4
f 310/3/4 311/3/4 314/3/4
f 311/1/4 312/1/4 315/1/4
f 314/3/4 311/3/4 315/3/4
f 312/2/4 313/2/4 316/2/4
f 315/1/4 312/1/4 316/1/4
f 314/4/4 315/4/4 317/4/4
f 315/2/4 316/2/4 317/2/4
f 271/4/4 272/4/4 318/4/4
f 317/2/4 316/2/4 318/2/4
f 285/2/4 271/2/4 318/2/4
f 316/2/4 313/2/4 318/2/4
f 313/2/4 289/2/4 318/2/4
f 289/2/4 285/2/4 318/2/4
f 272/2/4 308/2/4 319/2/4
f 318/4/4 272/4/4 319/4/4
f 308/2/4 309/2/4 319/2/4
f 305/4/4 302/4/4 320/4/4
f 319/2/4 309/2/4 320/2/4
f 309/2/4 305/2/4 320/2/4
f 314/4/4 317/4/4 321/4/4
f 318/4/4 319/4/4 321/4/4
f 319/4/4 320/4/4 321/4/4
f 317/4/4 318/4/4 321/4/4
f 320/4/4 302/4/4 322/4/4
f 321/4/4 320/4/4 322/4/4
f 335/4/5 324/4/5 323/4/5
f 336/3/5 325/3/5 324/3/5
f 336/4/5 324/4/5 335/4/5
f 337/4/5 326/4/5 325/4/5
f 337/3/5 325/3/5 336/3/5
f 338/3/5 327/3/5 326/3/5
f 338/4/5 326/4/5 337/4/5
f 339/4/5 328/4/5 327/4/5
f 339/3/5 327/3/5 338/3/5
f 340/3/5 329/3/5 328/3/5
f 340/4/5 328/4/5 339/4/5
f 341/4/5 330/4/5 329/4/5
f 341/3/5 329/3/5 340/3/5
f 342/3/5 331/3/5 330/3/5
f 342/4/5 330/4/5 341/4/5
f 343/4/5 332/4/5 331/4/5
f 343/3/5 331/3/5 342/3/5
f 344/3/5 333/3/5 332/3/5
f 344/4/5 332/4/5 343/4/5
f 345/4/5 334/4/5 333/4/5
f 345/3/5 333/3/5 344/3/5
f 346/4/5 334/4/5 345/4/5
f 347/4/6 348/4/6 359/4/6
f 348/1/6 349/1/6 360/1/6
f 359/4/6 348/4/6 360/4/6
f 349/4/6 350/4/6 361/4/6
f 360/1/6 349/1/6 361/1/6
f 350/1/6 351/1/6 362/1/6
f 361/4/6 350/4/6 362/4/6
f 351/4/6 352/4/6 363/4/6
f 362/1/6 351/1/6 363/1/6
f 352/1/6 353/1/6 364/1/6
f 363/4/6 352/4/6 364/4/6
f 353/4/6 354/4/6 365/4/6
f 364/1/6 353/1/6 365/1/6
f 354/1/6 355/1/6 366/1/6
f 365/4/6 354/4/6 366/4/6
f 355/4/6 356/4/6 367/4/6
f 366/1/6 355/1/6 367/1/6
f 356/1/6 357/1/6 368/1/6
f 367/4/6 356/4/6 368/4/6
f 357/4/6 358/4/6 369/4/6
f 368/1/6 357/1/6 369/1/6
f 369/4/6 358/4/6 370/4/6
